<?xml version="1.0" encoding="utf-8"?>
<!-- Generator: Adobe Illustrator 15.0.0, SVG Export Plug-In . SVG Version: 6.00 Build 0)  -->
<!DOCTYPE svg PUBLIC "-//W3C//DTD SVG 1.0//EN" "http://www.w3.org/TR/2001/REC-SVG-20010904/DTD/svg10.dtd">
<svg version="1.0" id="Layer_1" xmlns="http://www.w3.org/2000/svg" xmlns:xlink="http://www.w3.org/1999/xlink" x="0px" y="0px"
	 width="786.5px" height="552px" viewBox="0 0 786.5 552" enable-background="new 0 0 786.5 552" xml:space="preserve">
<g>
	<path fill="#EE1B2E" d="M423.26,0h17.44c34.41,1.38,67.479,12.28,99.319,24.64c20.23,7.48,40.211,15.59,60.271,23.49
		c17.2,5.83,34.989,10.88,53.25,11.42c18.66,0.35,38.08-3.12,53.779-13.72c13.831-9.16,22.381-24,29.721-38.46
		c6.04-0.03,12.08-0.07,18.12,0.02c-5.73,17.76-15.391,34.38-28.7,47.53c-11.59,11.57-26.021,20.16-41.55,25.28
		c-19.471,6.47-40.32,7.63-60.65,6c-18.9-1.58-37.31-6.65-55.13-12.99c-19.34-6.89-38.28-14.82-57.399-22.28
		c-25.211-9.89-51.11-19.25-78.301-21.51c-28.709-2.57-58.82,0.92-84.34,15.06c-27.95,15.21-48.35,42.44-57.57,72.66
		c-5.85-0.01-11.7,0-17.55,0.01c9.46-30.94,25.92-60.72,51.54-81.13C353.31,14.24,388.03,1.74,423.26,0z"/>
	<path fill="#EE1B2E" d="M764.99,7.35c5.779,0.01,11.57-0.07,17.359,0.05c-9.66,31.56-26.67,61.92-53.17,82.31
		c-27.199,20.61-60.68,32.85-94.779,34.54c-22.561,1.29-45.211-1.69-67.041-7.31c-14.6-3.59-29.06-7.88-43.01-13.52
		c-19.27-7.38-38.3-15.35-57.51-22.87c-16.45-6.91-33.74-11.92-51.37-14.64c-22.38-2.88-46.54-0.21-65.82,12.28
		c-14.22,9.12-22.9,24.27-30.4,38.94c-5.98,0.04-11.96-0.01-17.94,0.02c8.62-26.84,26.83-51.04,51.86-64.51
		c25.27-13.91,55.18-16.47,83.42-13.44c27.92,3.04,54.221,13.54,80.15,23.74c22.77,8.89,45.3,18.57,68.81,25.4
		c22.931,6.68,47.09,9.43,70.9,7.15c19.54-1.76,38.869-7.52,55.64-17.84C737.76,61.94,756.26,35.95,764.99,7.35z"/>
	<path fill="#EE1B2E" d="M314.38,179.47c13.83-2.94,28.55-0.96,41.29,5.12c12.6,5.94,23.25,15.45,31.7,26.43
		c6.48,8.22,11.27,17.57,16.61,26.53c22.14,38.14,44.39,76.22,66.27,114.511c0.22-28.991,0.02-57.991,0.09-86.98
		c0.271-12.4-1.061-25.05,2.2-37.18c4.39-18.03,16.58-34.15,33.18-42.62c14.11-7.47,31.091-9.04,46.42-4.69
		c14.83,4.12,27.83,13.4,37.921,24.87c9.449,10.38,15.779,22.99,22.89,34.95c21.659,37.25,43.53,74.37,65.2,111.609
		c0.149-57.51,0.02-115.029,0.069-172.54c15.47-0.09,30.95-0.06,46.42-0.01c-0.01,97.18-0.01,194.37,0,291.56
		c0,4.57,0.421,9.659-2.39,13.59c-2.061,3.1-6.49,3.94-9.689,2.199c-2.66-1.209-4.4-3.649-5.841-6.079
		c-50.159-80.54-100.54-160.95-150.27-241.76c-3.671-6.37-10.521-10.98-17.921-11.38c-7.939-0.57-15.76,4.27-19.079,11.43
		c-2.71,5.24-2.761,11.29-2.671,17.05c0.021,73.31-0.01,146.63,0.011,219.95c0.01,4.28-1.3,9.609-5.78,11.27
		c-4.26,1.5-8.54-1.55-10.66-5.09c-50.859-81.54-101.78-163.04-152.24-244.83c-4.11-6.02-11.24-10.14-18.61-9.83
		c-7.04,0.07-13.74,4.35-16.98,10.55c-3.07,5.44-3.29,11.85-3.16,17.94c-0.01,73.021,0.06,146.05-0.03,219.07
		c-0.25,6.54-6.34,12.04-12.82,12.01c-33.68,0.069-67.35,0-101.03,0.03c-13.75,0.14-27.59-0.561-41.06-3.55
		c-25.85-5.411-50.18-19-67.14-39.4c-19.97-23.78-29.84-55.32-28.67-86.2c0.95-31.48,13.35-62.84,35.59-85.34
		c19.29-19.74,45.89-31.5,73.2-34.34c10.62-1.31,21.34-0.93,32.02-0.98c16.71-0.01,33.43,0.02,50.14-0.01
		c0.17,15.31,0.04,30.63,0.07,45.939c-16.72,0.03-33.44,0-50.16,0.011c-9.3,0.05-18.66-0.33-27.87,1.2
		c-16.63,2.51-32.59,10.2-44.34,22.339c-14.59,14.741-22.689,35.461-22.72,56.141c-0.12,17.14,5.42,34.41,16.22,47.8
		c9.04,11.46,21.71,19.76,35.45,24.51c10.99,3.87,22.66,5.561,34.28,5.86c20.01,0.01,40.02-0.01,60.02,0.021
		c4.72,0.21,9.31-2.72,11.17-7.04c1.51-3.15,1.13-6.73,1.17-10.11c-0.02-59.66,0-119.33-0.01-179c0.15-15.83,5.5-31.75,15.75-43.92
		C287.66,190.16,300.44,182.33,314.38,179.47z"/>
	<path fill="#EE1B2E" d="M164.53,181.01c18.26-2.12,36.66-1.48,55-1.58c10.04,0.05,20.09-0.11,30.13,0.08
		c-0.06,15.45,0,30.9-0.03,46.35c-21.06,0.01-42.12,0.01-63.18,0c-17.03-0.01-34.18,2.11-50.36,7.61
		c-25.14,8.27-47.53,24.65-62.88,46.219C52.59,308.33,43.88,344.931,48.08,379.86c3.54,29.959,16.6,59.14,38.27,80.37
		c19.05,19.149,44.59,31.089,71.06,35.649c11.9,2.21,24.02,2.76,36.1,2.721c32.02-0.011,64.04-0.011,96.06-0.011
		c4.96-0.04,10.1,0.38,14.85-1.4c9.27-3.149,16.22-12.289,16.42-22.12c0.01-74.699-0.01-149.399,0.01-224.099
		c0-4.26,1.43-9.13,5.49-11.2c4.41-2.11,9.86,0.04,12.35,4.07C389,325.39,439.811,406.65,490.5,487.97
		c4.51,7.8,14.15,13.181,23.15,10.461c9.189-2.541,14.6-12.25,14.55-21.381c0.03-75,0-150,0.02-224.99
		c-0.03-4.26,0.81-9.25,4.681-11.74c4.27-2.83,10.189-0.8,12.91,3.24C596.16,325.13,646.96,406.431,697.67,487.77
		c3.21,5.4,8.5,9.711,14.72,11.021c6.47,1.51,13.561-1.07,17.87-6.06c4.11-4.49,5.801-10.721,5.82-16.7
		c0.02-98.86-0.02-197.711,0.02-296.56c15.381-0.07,30.75-0.04,46.131-0.02c0.039,98.54,0.01,197.08,0.02,295.619
		c-0.061,7.021,0.33,14.111-0.91,21.07c-2.29,16.261-10.43,32.05-23.83,41.87c-14.42,10.87-33.64,14.06-51.15,10.58
		c-21.989-4.239-41.18-18.9-52.619-37.939c-26.24-43.461-52.54-86.891-78.68-130.41c0.009,28.93,0.009,57.85,0.009,86.779
		c-0.06,12,0.61,24.211-2.43,35.95c-3.31,13.92-11.239,26.93-22.95,35.33c-14.26,10.53-33.1,13.671-50.31,10.301
		c-22.24-4.17-41.63-19.021-53.14-38.281c-26.16-43.399-52.5-86.699-78.49-130.199c-0.27,31.94,0,63.89-0.14,95.83
		c-0.4,15.88-4.35,32.239-14.17,45.02c-8.78,11.68-22.19,19.29-36.34,22.36c-12.32,2.92-25.04,2.14-37.59,2.239
		c-29.22-0.039-58.45,0.071-87.68-0.06c-36.98-0.55-74.45-9.13-106.17-28.649c-24-14.62-44.28-35.25-58.569-59.45
		c-34.03-57.16-34.84-132.63-1.37-190.23c17.17-29.96,43.85-54.24,75.16-68.76C120.9,189.03,142.58,183.42,164.53,181.01z"/>
</g>
</svg>
